<svg viewBox="0 0 94.192 65.687" xml:space="preserve" xmlns="http://www.w3.org/2000/svg"><path d="M-292.88 1054.353q-3.135 0-5.231 2.26-2.115-2.26-5.25-2.26h-.055q-3.044 0-5.122 2.133-2.097 2.114-2.097 5.195v8.385q0 .82.584 1.386.565.583 1.385.583.82 0 1.385-.583.584-.565.584-1.386v-8.385q0-1.477.93-2.425.93-.966 2.351-.966h.055q1.422 0 2.351.966.93.948.93 2.425v8.385q0 .82.565 1.386.583.583 1.404.583.802 0 1.385-.583.565-.565.565-1.386v-8.385q0-1.477.93-2.425.93-.966 2.351-.966h.055q1.422 0 2.352.966.93.948.93 2.425v8.385q0 .82.583 1.386.565.583 1.385.583.82 0 1.386-.583.583-.565.583-1.386v-8.385q0-3.08-2.096-5.195-2.079-2.133-5.123-2.133z" style="fill:#6da210;stroke:#6da210;stroke-width:.86057;stroke-linecap:round;stroke-linejoin:round" transform="translate(551.28 -1726.874) scale(1.66024)"/><path d="M-307.81 1062.191q0-1.476 1.058-2.534 1.057-1.057 2.552-1.057h.055q1.476 0 2.534 1.058 1.057 1.057 1.057 2.533v2.388q0 1.495-1.057 2.552-1.058 1.058-2.534 1.058h-.055q-1.495 0-2.552-1.058-1.057-1.057-1.057-2.552zm3.61-7.437q-3.08 0-5.268 2.17-2.188 2.187-2.188 5.267v2.388q0 3.081 2.188 5.269 2.187 2.187 5.268 2.187h.055q3.08 0 5.268-2.187 2.17-2.188 2.17-5.269v-14.765q0-.802-.548-1.35-.565-.564-1.367-.564t-1.367.565q-.565.547-.565 1.349v5.87q-1.677-.93-3.591-.93z" style="fill:#6da210;stroke:#6da210;stroke-width:.956189;stroke-linecap:round;stroke-linejoin:round" transform="translate(534.588 -1726.954) scale(1.66024)"/><path d="M-1017.255-137.415c2.176 0 4.032.768 5.568 2.304 1.664 1.536 2.496 3.392 2.496 5.568 0 2.176-.832 4.032-2.496 5.568-1.536 1.536-3.392 2.304-5.568 2.304h-20.618c-2.176 0-4.096-.768-5.76-2.304-1.536-1.536-2.304-3.392-2.304-5.568V-289.22c0-2.176.768-3.968 2.304-5.376 1.664-1.408 3.584-2.112 5.76-2.112h20.618c2.176 0 4.032.768 5.568 2.304 1.664 1.536 2.496 3.392 2.496 5.568 0 2.176-.832 4.032-2.496 5.568-1.536 1.536-3.392 2.304-5.568 2.304h-10.634c-1.536 0-2.304.704-2.304 2.112v139.132c0 1.536.768 2.304 2.304 2.304z" style="fill:#8bd010;stroke:#8bd010;stroke-width:4.88809;stroke-dasharray:none" transform="matrix(.39324 0 0 .36508 412.261 109.215)"/><path d="M-1017.255-137.415c2.176 0 4.032.768 5.568 2.304 1.664 1.536 2.496 3.392 2.496 5.568 0 2.176-.832 4.032-2.496 5.568-1.536 1.536-3.392 2.304-5.568 2.304h-20.618c-2.176 0-4.096-.768-5.76-2.304-1.536-1.536-2.304-3.392-2.304-5.568V-289.22c0-2.176.768-3.968 2.304-5.376 1.664-1.408 3.584-2.112 5.76-2.112h20.618c2.176 0 4.032.768 5.568 2.304 1.664 1.536 2.496 3.392 2.496 5.568 0 2.176-.832 4.032-2.496 5.568-1.536 1.536-3.392 2.304-5.568 2.304h-10.634c-1.536 0-2.304.704-2.304 2.112v139.132c0 1.536.768 2.304 2.304 2.304z" style="fill:#8bd010;stroke:#8bd010;stroke-width:4.88809;stroke-dasharray:none" transform="matrix(-.39324 0 0 .36508 -318.07 109.215)"/></svg>